<?xml version="1.0" encoding="utf-8"?>
<!-- Generator: Adobe Illustrator 21.1.0, SVG Export Plug-In . SVG Version: 6.00 Build 0)  -->
<svg version="1.1" id="Capa_1" xmlns="http://www.w3.org/2000/svg" xmlns:xlink="http://www.w3.org/1999/xlink" x="0px" y="0px"
	 viewBox="0 0 321 370.6" style="enable-background:new 0 0 321 370.6;" xml:space="preserve">
<style type="text/css">
	.st0{fill:#E2245F;}
	.st1{fill:none;stroke:#FFFFFF;stroke-width:7;stroke-miterlimit:10;}
	.st2{fill:#FFFFFF;}
</style>
<g>
	<circle cx="168.3" cy="179.4" r="130.9"/>
</g>
<g>
	<path class="st2" d="M168.3,278.7c-54.7,0-99.3-44.5-99.3-99.3c0-54.7,44.5-99.3,99.3-99.3c54.7,0,99.3,44.5,99.3,99.3
		C267.6,234.1,223,278.7,168.3,278.7z M168.3,101.9c-42.7,0-77.5,34.8-77.5,77.5c0,42.7,34.8,77.5,77.5,77.5
		c42.7,0,77.5-34.8,77.5-77.5C245.8,136.7,211,101.9,168.3,101.9z"/>
</g>
<g>
	<circle cx="227.7" cy="121.2" r="46.8"/>
</g>
<g>
	<circle class="st0" cx="227.7" cy="121.2" r="30.6"/>
</g>
</svg>
